<svg width="150" height="38" viewBox="0 0 150 38" fill="none" xmlns="http://www.w3.org/2000/svg">
<path d="M21.96 16.2L9 20.36L20.28 24.52L19 30.96L0.08 23.56L1.52 16.44L23.4 9.04L21.96 16.2ZM50.7969 34.64C47.9435 34.64 45.4235 34.12 43.2369 33.08C41.0769 32.0133 39.3969 30.5333 38.1969 28.64C37.0235 26.7467 36.4369 24.5733 36.4369 22.12C36.4369 18.8667 37.1835 15.9733 38.6769 13.44C40.1969 10.9067 42.2902 8.93333 44.9569 7.52C47.6502 6.08 50.7035 5.36 54.1169 5.36C56.8102 5.36 59.1969 5.85333 61.2769 6.84C63.3569 7.8 64.9035 9.17333 65.9169 10.96L59.1169 16.28C57.8635 14.0933 55.9969 13 53.5169 13C52.0502 13 50.7435 13.36 49.5969 14.08C48.4502 14.8 47.5569 15.8133 46.9169 17.12C46.2769 18.4 45.9569 19.8667 45.9569 21.52C45.9569 23.1733 46.4769 24.5067 47.5169 25.52C48.5835 26.5067 49.9835 27 51.7169 27C54.0902 27 56.1702 25.92 57.9569 23.76L63.5169 29.08C61.8902 31.08 60.0369 32.5067 57.9569 33.36C55.9035 34.2133 53.5169 34.64 50.7969 34.64ZM83.0825 5.36C85.5625 5.36 87.7225 5.78667 89.5625 6.64C91.4025 7.49333 92.8158 8.72 93.8025 10.32C94.7892 11.92 95.2825 13.8267 95.2825 16.04C95.2825 17.08 95.1625 18.2 94.9225 19.4L92.0025 34H82.5625L83.6825 28.36H74.8025L73.6825 34H64.4025L67.5625 18.2C68.3892 14.0133 70.1358 10.8267 72.8025 8.64C75.4958 6.45333 78.9225 5.36 83.0825 5.36ZM85.1225 21.24L85.6025 18.76C85.7625 17.9867 85.8425 17.32 85.8425 16.76C85.8425 15.5067 85.5225 14.5733 84.8825 13.96C84.2425 13.32 83.3225 13 82.1225 13C80.7358 13 79.5892 13.4267 78.6825 14.28C77.8025 15.1333 77.1758 16.4933 76.8025 18.36L76.2425 21.24H85.1225ZM124.114 0.319997H132.354L111.874 38H103.634L124.114 0.319997ZM149.772 16.44L148.332 23.56L126.452 30.96L127.892 23.8L140.852 19.64L129.572 15.48L130.852 9.04L149.772 16.44Z" fill="#00B788"/>
</svg>
